<svg width="224" height="60" viewBox="0 0 224 60" fill="none" xmlns="http://www.w3.org/2000/svg">
<rect width="224" height="60" rx="20" fill="#A259FF"/>
<path fill-rule="evenodd" clip-rule="evenodd" d="M56.1705 32.4494C56.2805 32.7766 56.1045 33.131 55.7773 33.241C54.7179 33.5973 54.1549 34.4866 53.8537 35.391C53.7341 35.7501 53.6619 36.0958 53.6185 36.3817C53.9043 36.3383 54.2501 36.266 54.6092 36.1464C55.5136 35.8453 56.4029 35.2823 56.7592 34.2228C56.8692 33.8957 57.2236 33.7196 57.5508 33.8296C57.878 33.9397 58.054 34.2941 57.944 34.6213C57.4096 36.2103 56.088 36.9715 55.0041 37.3324C54.4566 37.5148 53.9439 37.6048 53.5698 37.6497C53.3818 37.6722 53.2264 37.6836 53.116 37.6894C53.0607 37.6924 53.0166 37.6939 52.9851 37.6946C52.9693 37.695 52.9567 37.6952 52.9474 37.6954L52.936 37.6955L52.9322 37.6955L52.9308 37.6955L52.9302 37.6955C52.9299 37.6955 52.9297 37.6955 52.9297 37.0705C52.3047 37.0705 52.3047 37.0702 52.3047 37.07L52.3047 37.0694L52.3047 37.068L52.3047 37.0642L52.3048 37.0528C52.3049 37.0435 52.3051 37.0309 52.3055 37.0151C52.3063 36.9836 52.3078 36.9394 52.3107 36.8842C52.3165 36.7738 52.328 36.6184 52.3505 36.4304C52.3954 36.0562 52.4854 35.5436 52.6678 34.9961C53.0287 33.9122 53.7899 32.5906 55.3789 32.0562C55.7061 31.9462 56.0605 32.1222 56.1705 32.4494ZM52.9297 37.0705H52.3047C52.3047 37.4157 52.5845 37.6955 52.9297 37.6955V37.0705Z" fill="white"/>
<path fill-rule="evenodd" clip-rule="evenodd" d="M66.5462 23.4541C65.8208 23.3494 64.0351 23.31 62.2076 25.1375L57.3448 30.0003L60 32.6555L64.8627 27.7927C66.6903 25.9652 66.6508 24.1795 66.5462 23.4541ZM66.7275 22.2173C65.7298 22.0728 63.5058 22.0716 61.3237 24.2536L56.019 29.5583C55.9018 29.6755 55.8359 29.8345 55.8359 30.0003C55.8359 30.166 55.9018 30.325 56.019 30.4422L59.5581 33.9813C59.8021 34.2254 60.1979 34.2254 60.4419 33.9813L65.7466 28.6766C67.9287 26.4945 67.9275 24.2705 67.783 23.2728C67.7465 23.0058 67.6235 22.758 67.4329 22.5674C67.2422 22.3768 66.9945 22.2538 66.7275 22.2173Z" fill="white"/>
<path fill-rule="evenodd" clip-rule="evenodd" d="M64.422 28.4922C64.7672 28.4922 65.047 28.772 65.047 29.1172V34.1641L65.0469 34.173C65.0423 34.5013 64.9086 34.8145 64.675 35.045L62.1527 37.575C61.9926 37.7349 61.7921 37.8484 61.5725 37.9033C61.353 37.9582 61.1227 37.9524 60.9061 37.8867C60.6896 37.8209 60.495 37.6976 60.343 37.5299C60.1912 37.3623 60.0877 37.1567 60.0435 36.9349C60.0434 36.9347 60.0435 36.9351 60.0435 36.9349L59.3873 33.6619C59.3195 33.3235 59.5388 32.9941 59.8773 32.9263C60.2157 32.8584 60.5451 33.0778 60.6129 33.4162L61.2694 36.6906L63.797 34.1552V29.1172C63.797 28.772 64.0768 28.4922 64.422 28.4922Z" fill="white"/>
<path fill-rule="evenodd" clip-rule="evenodd" d="M55.8272 24.9532L55.8361 24.9531H60.883C61.2282 24.9531 61.508 25.2329 61.508 25.5781C61.508 25.9233 61.2282 26.2031 60.883 26.2031H55.845L55.8399 26.2083L55.8399 26.2082L53.3096 28.7307L53.3105 28.7309L56.584 29.3872C56.9224 29.455 57.1418 29.7844 57.0739 30.1229C57.0061 30.4613 56.6767 30.6807 56.3383 30.6128L53.0658 29.9567C53.0656 29.9567 53.0654 29.9567 53.0652 29.9566C52.8435 29.9124 52.6379 29.8089 52.4703 29.6571C52.3026 29.5052 52.1793 29.3105 52.1135 29.094C52.0477 28.8775 52.042 28.6471 52.0969 28.4276C52.1518 28.208 52.2652 28.0075 52.4252 27.8474L52.4261 27.8464L52.4261 27.8464L54.9552 25.3251C55.1857 25.0915 55.4989 24.9579 55.8272 24.9532Z" fill="white"/>
<path d="M87.9542 35.16C86.9835 35.16 86.1302 34.9467 85.3942 34.52C84.6689 34.0933 84.1035 33.4747 83.6982 32.664C83.2929 31.8533 83.0902 30.8773 83.0902 29.736C83.0902 28.6053 83.3035 27.6347 83.7302 26.824C84.1569 26.0027 84.7595 25.3733 85.5382 24.936C86.3275 24.4987 87.2395 24.28 88.2742 24.28C89.4155 24.28 90.3382 24.4933 91.0422 24.92C91.7462 25.336 92.3062 25.9867 92.7222 26.872L90.6742 27.752C90.5035 27.1867 90.2102 26.7707 89.7942 26.504C89.3889 26.2267 88.8875 26.088 88.2902 26.088C87.6929 26.088 87.1755 26.232 86.7382 26.52C86.3009 26.7973 85.9649 27.208 85.7302 27.752C85.4955 28.2853 85.3782 28.9413 85.3782 29.72C85.3782 30.52 85.4902 31.1973 85.7142 31.752C85.9382 32.296 86.2689 32.7067 86.7062 32.984C87.1542 33.2507 87.7035 33.384 88.3542 33.384C88.7062 33.384 89.0315 33.3413 89.3302 33.256C89.6395 33.1707 89.9062 33.0427 90.1302 32.872C90.3542 32.7013 90.5302 32.4827 90.6582 32.216C90.7862 31.9493 90.8502 31.64 90.8502 31.288V31.048H88.0822V29.432H92.7542V35H91.2022L91.0422 32.696L91.4262 32.968C91.1915 33.672 90.7755 34.216 90.1782 34.6C89.5915 34.9733 88.8502 35.16 87.9542 35.16ZM98.6687 35.16C97.826 35.16 97.09 34.9947 96.4607 34.664C95.842 34.3333 95.362 33.8587 95.0207 33.24C94.6794 32.6213 94.5087 31.8747 94.5087 31C94.5087 30.1253 94.6794 29.3787 95.0207 28.76C95.362 28.1413 95.8367 27.6667 96.4447 27.336C97.0634 27.0053 97.7674 26.84 98.5567 26.84C99.3674 26.84 100.055 27.0053 100.621 27.336C101.186 27.656 101.618 28.0987 101.917 28.664C102.215 29.2187 102.365 29.8533 102.365 30.568C102.365 30.7813 102.359 30.984 102.349 31.176C102.338 31.368 102.322 31.5387 102.301 31.688H95.9167V30.168H101.341L100.285 30.552C100.285 29.88 100.13 29.3627 99.8207 29C99.522 28.6373 99.0954 28.456 98.5407 28.456C98.1354 28.456 97.7834 28.552 97.4847 28.744C97.1967 28.936 96.978 29.224 96.8287 29.608C96.6794 29.9813 96.6047 30.456 96.6047 31.032C96.6047 31.5973 96.6847 32.0667 96.8447 32.44C97.0154 32.8027 97.25 33.0747 97.5487 33.256C97.858 33.4373 98.226 33.528 98.6527 33.528C99.122 33.528 99.5007 33.4373 99.7887 33.256C100.077 33.0747 100.301 32.824 100.461 32.504L102.205 33.176C102.034 33.592 101.773 33.9493 101.421 34.248C101.079 34.5467 100.669 34.776 100.189 34.936C99.7194 35.0853 99.2127 35.16 98.6687 35.16ZM106.914 24.552V32.392C106.914 32.776 107.01 33.0587 107.202 33.24C107.404 33.4107 107.676 33.496 108.018 33.496C108.284 33.496 108.519 33.4587 108.722 33.384C108.924 33.2987 109.106 33.1867 109.266 33.048L109.618 34.504C109.362 34.7067 109.042 34.8667 108.658 34.984C108.274 35.1013 107.868 35.16 107.442 35.16C106.908 35.16 106.434 35.08 106.018 34.92C105.612 34.76 105.292 34.504 105.058 34.152C104.834 33.8 104.722 33.3307 104.722 32.744V25.16L106.914 24.552ZM109.474 27V28.632H103.25V27H109.474ZM119.927 24.28C120.887 24.28 121.73 24.4453 122.455 24.776C123.181 25.1067 123.799 25.5973 124.311 26.248L123.079 27.672C122.642 27.1173 122.162 26.712 121.639 26.456C121.127 26.1893 120.53 26.056 119.847 26.056C119.399 26.056 119.026 26.1147 118.727 26.232C118.439 26.3493 118.226 26.504 118.087 26.696C117.959 26.888 117.895 27.1013 117.895 27.336C117.895 27.624 118.007 27.8693 118.231 28.072C118.455 28.264 118.839 28.424 119.383 28.552L121.351 29C122.397 29.2347 123.143 29.5867 123.591 30.056C124.05 30.5147 124.279 31.112 124.279 31.848C124.279 32.5413 124.098 33.1387 123.735 33.64C123.373 34.1307 122.866 34.5093 122.215 34.776C121.565 35.032 120.818 35.16 119.975 35.16C119.239 35.16 118.562 35.0747 117.943 34.904C117.335 34.7227 116.791 34.4773 116.311 34.168C115.831 33.8587 115.431 33.5013 115.111 33.096L116.359 31.608C116.605 31.9493 116.909 32.2533 117.271 32.52C117.634 32.7867 118.045 33 118.503 33.16C118.973 33.3093 119.463 33.384 119.975 33.384C120.413 33.384 120.781 33.336 121.079 33.24C121.389 33.1333 121.618 32.9893 121.767 32.808C121.927 32.616 122.007 32.3867 122.007 32.12C122.007 31.8427 121.911 31.608 121.719 31.416C121.538 31.2133 121.197 31.0587 120.695 30.952L118.551 30.472C117.933 30.3227 117.399 30.1307 116.951 29.896C116.514 29.6507 116.178 29.3413 115.943 28.968C115.719 28.584 115.607 28.1307 115.607 27.608C115.607 26.9787 115.778 26.4133 116.119 25.912C116.461 25.4107 116.951 25.016 117.591 24.728C118.242 24.4293 119.021 24.28 119.927 24.28ZM128.976 24.552V32.392C128.976 32.776 129.072 33.0587 129.264 33.24C129.467 33.4107 129.739 33.496 130.08 33.496C130.347 33.496 130.582 33.4587 130.784 33.384C130.987 33.2987 131.168 33.1867 131.328 33.048L131.68 34.504C131.424 34.7067 131.104 34.8667 130.72 34.984C130.336 35.1013 129.931 35.16 129.504 35.16C128.971 35.16 128.496 35.08 128.08 34.92C127.675 34.76 127.355 34.504 127.12 34.152C126.896 33.8 126.784 33.3307 126.784 32.744V25.16L128.976 24.552ZM131.536 27V28.632H125.312V27H131.536ZM137.657 29.896C137.657 29.4373 137.524 29.08 137.257 28.824C137.001 28.568 136.66 28.44 136.233 28.44C135.839 28.44 135.492 28.5413 135.193 28.744C134.895 28.9467 134.676 29.2827 134.537 29.752L132.665 29.176C132.847 28.472 133.241 27.9067 133.849 27.48C134.468 27.0533 135.295 26.84 136.329 26.84C137.033 26.84 137.647 26.952 138.169 27.176C138.692 27.3893 139.097 27.7147 139.385 28.152C139.684 28.5893 139.833 29.1387 139.833 29.8V33.048C139.833 33.4533 140.025 33.656 140.409 33.656C140.591 33.656 140.761 33.6293 140.921 33.576L140.793 34.936C140.516 35.0747 140.169 35.144 139.753 35.144C139.38 35.144 139.044 35.08 138.745 34.952C138.447 34.824 138.212 34.632 138.041 34.376C137.871 34.1093 137.785 33.7787 137.785 33.384V33.32L138.169 33.256C138.105 33.6613 137.929 34.008 137.641 34.296C137.353 34.5733 137.001 34.7867 136.585 34.936C136.18 35.0853 135.759 35.16 135.321 35.16C134.777 35.16 134.308 35.08 133.913 34.92C133.519 34.7493 133.215 34.504 133.001 34.184C132.788 33.864 132.681 33.4693 132.681 33C132.681 32.4027 132.873 31.9173 133.257 31.544C133.641 31.16 134.191 30.8987 134.905 30.76L137.913 30.152L137.897 31.512L135.977 31.896C135.615 31.9707 135.337 32.072 135.145 32.2C134.964 32.3173 134.873 32.5147 134.873 32.792C134.873 33.0587 134.969 33.2613 135.161 33.4C135.364 33.5387 135.604 33.608 135.881 33.608C136.105 33.608 136.324 33.5813 136.537 33.528C136.751 33.4747 136.943 33.3893 137.113 33.272C137.284 33.1547 137.417 32.9947 137.513 32.792C137.609 32.5893 137.657 32.344 137.657 32.056V29.896ZM142.285 35V27H144.189L144.333 28.568C144.546 28.0133 144.855 27.5867 145.261 27.288C145.677 26.9893 146.194 26.84 146.813 26.84C146.994 26.84 147.159 26.856 147.309 26.888C147.458 26.92 147.581 26.9627 147.677 27.016L147.421 28.856C147.314 28.8133 147.181 28.7813 147.021 28.76C146.871 28.7387 146.674 28.728 146.429 28.728C146.109 28.728 145.799 28.808 145.501 28.968C145.202 29.1173 144.957 29.352 144.765 29.672C144.573 29.9813 144.477 30.376 144.477 30.856V35H142.285ZM151.57 24.552V32.392C151.57 32.776 151.666 33.0587 151.858 33.24C152.061 33.4107 152.333 33.496 152.674 33.496C152.941 33.496 153.175 33.4587 153.378 33.384C153.581 33.2987 153.762 33.1867 153.922 33.048L154.274 34.504C154.018 34.7067 153.698 34.8667 153.314 34.984C152.93 35.1013 152.525 35.16 152.098 35.16C151.565 35.16 151.09 35.08 150.674 34.92C150.269 34.76 149.949 34.504 149.714 34.152C149.49 33.8 149.378 33.3307 149.378 32.744V25.16L151.57 24.552ZM154.13 27V28.632H147.906V27H154.13ZM159.325 35.16C158.482 35.16 157.746 34.9947 157.117 34.664C156.498 34.3333 156.018 33.8587 155.677 33.24C155.336 32.6213 155.165 31.8747 155.165 31C155.165 30.1253 155.336 29.3787 155.677 28.76C156.018 28.1413 156.493 27.6667 157.101 27.336C157.72 27.0053 158.424 26.84 159.213 26.84C160.024 26.84 160.712 27.0053 161.277 27.336C161.842 27.656 162.274 28.0987 162.573 28.664C162.872 29.2187 163.021 29.8533 163.021 30.568C163.021 30.7813 163.016 30.984 163.005 31.176C162.994 31.368 162.978 31.5387 162.957 31.688H156.573V30.168H161.997L160.941 30.552C160.941 29.88 160.786 29.3627 160.477 29C160.178 28.6373 159.752 28.456 159.197 28.456C158.792 28.456 158.44 28.552 158.141 28.744C157.853 28.936 157.634 29.224 157.485 29.608C157.336 29.9813 157.261 30.456 157.261 31.032C157.261 31.5973 157.341 32.0667 157.501 32.44C157.672 32.8027 157.906 33.0747 158.205 33.256C158.514 33.4373 158.882 33.528 159.309 33.528C159.778 33.528 160.157 33.4373 160.445 33.256C160.733 33.0747 160.957 32.824 161.117 32.504L162.861 33.176C162.69 33.592 162.429 33.9493 162.077 34.248C161.736 34.5467 161.325 34.776 160.845 34.936C160.376 35.0853 159.869 35.16 159.325 35.16ZM167.903 35.16C167.241 35.16 166.649 34.9947 166.127 34.664C165.615 34.3333 165.209 33.8587 164.911 33.24C164.623 32.6213 164.479 31.88 164.479 31.016C164.479 30.1307 164.633 29.3787 164.943 28.76C165.252 28.1307 165.668 27.656 166.191 27.336C166.724 27.0053 167.321 26.84 167.983 26.84C168.687 26.84 169.268 27.0427 169.727 27.448C170.185 27.8533 170.484 28.376 170.623 29.016L170.415 29.272V23.496H172.607V35H170.639L170.495 32.568L170.767 32.696C170.692 33.1973 170.521 33.6347 170.255 34.008C169.988 34.3707 169.652 34.6533 169.247 34.856C168.841 35.0587 168.393 35.16 167.903 35.16ZM168.543 33.48C168.927 33.48 169.257 33.384 169.535 33.192C169.812 32.9893 170.025 32.696 170.175 32.312C170.335 31.928 170.415 31.4693 170.415 30.936C170.415 30.424 170.34 29.992 170.191 29.64C170.041 29.2773 169.828 29 169.551 28.808C169.273 28.616 168.948 28.52 168.575 28.52C167.977 28.52 167.508 28.7333 167.167 29.16C166.836 29.576 166.671 30.1893 166.671 31C166.671 31.8107 166.836 32.4293 167.167 32.856C167.497 33.272 167.956 33.48 168.543 33.48Z" fill="white"/>
</svg>
